<?xml version="1.0" encoding="utf-8"?>
<!-- Generator: Adobe Illustrator 16.0.0, SVG Export Plug-In . SVG Version: 6.00 Build 0)  -->
<!DOCTYPE svg PUBLIC "-//W3C//DTD SVG 1.1//EN" "http://www.w3.org/Graphics/SVG/1.1/DTD/svg11.dtd">
<svg version="1.1" id="Layer_1" xmlns="http://www.w3.org/2000/svg" xmlns:xlink="http://www.w3.org/1999/xlink" x="0px" y="0px"
	 width="304.404px" height="65.954px" viewBox="0 0 304.404 65.954" enable-background="new 0 0 304.404 65.954"
	 xml:space="preserve">
<path fill-rule="evenodd" clip-rule="evenodd" d="M262.586,60.799c0.973,0.934,2.47,1.439,3.929,1.439
	c1.964,0,3.753-0.895,3.753-2.917c0-3.676-5.717-2.509-5.717-4.784c0-0.952,0.875-1.361,2.022-1.361c0.953,0,1.983,0.331,2.78,0.837
	l0.584-1.206c-0.855-0.584-2.042-0.934-3.268-0.934c-1.867,0-3.559,0.816-3.559,2.781c-0.02,3.637,5.718,2.372,5.659,4.842
	c-0.02,1.012-0.991,1.459-2.197,1.459s-2.528-0.486-3.403-1.304L262.586,60.799z M258.639,62.18h1.517V47.75h-1.517V62.18z
	 M247.574,56.405c0.232-1.944,1.633-3.209,3.578-3.209c2.003,0,3.325,1.245,3.423,3.209H247.574z M246.076,57.066
	c0,3.054,2.081,5.173,5.096,5.173c1.711,0,3.15-0.622,4.123-1.711l-0.837-0.895c-0.797,0.836-1.905,1.283-3.17,1.283
	c-1.983,0-3.441-1.265-3.714-3.268h8.362c0.155-3.48-1.479-5.775-4.784-5.756C248.176,51.893,246.076,54.013,246.076,57.066z
	 M238.57,53.488h1.478v5.854c0,2.022,1.108,2.917,2.605,2.917c0.817-0.02,1.595-0.292,2.314-0.777l-0.428-1.226
	c-0.564,0.35-1.108,0.525-1.634,0.525c-0.875,0-1.361-0.467-1.361-1.712v-5.581h3.248v-1.245l-3.248,0.02v-2.703h-1.497v2.703
	h-1.478V53.488z M228.145,57.066c0-2.236,1.537-3.792,3.676-3.792c2.14,0,3.676,1.556,3.676,3.792c0,2.256-1.536,3.812-3.676,3.812
	C229.682,60.877,228.145,59.322,228.145,57.066z M226.628,57.046c0,3.073,2.159,5.192,5.192,5.192c3.034,0,5.193-2.119,5.193-5.192
	c0-3.053-2.159-5.153-5.193-5.153C228.788,51.893,226.628,53.994,226.628,57.046z M212.432,62.18h1.556v-5.989h8.207v5.989h1.556
	V48.568h-1.556v6.145h-8.207v-6.145h-1.556V62.18z M199.578,53.488h1.322v8.692h1.497v-8.692h2.938v-1.245h-2.938V50.92
	c0-1.187,0.817-1.828,1.81-1.828c0.524,0,1.089,0.195,1.555,0.525l0.623-1.226c-0.623-0.467-1.42-0.7-2.198-0.72
	c-1.711,0-3.286,1.206-3.286,3.442v1.128h-1.322V53.488z M189.115,57.066c0-2.236,1.537-3.792,3.676-3.792
	c2.14,0,3.676,1.556,3.676,3.792c0,2.256-1.536,3.812-3.676,3.812C190.652,60.877,189.115,59.322,189.115,57.066z M187.598,57.046
	c0,3.073,2.158,5.192,5.192,5.192c3.033,0,5.192-2.119,5.192-5.192c0-3.053-2.159-5.153-5.192-5.153
	C189.756,51.893,187.598,53.994,187.598,57.046z M171.768,57.046c0-2.217,1.517-3.812,3.676-3.812c2.139,0,3.655,1.614,3.655,3.812
	c0,2.217-1.517,3.812-3.655,3.812C173.285,60.858,171.768,59.283,171.768,57.046z M170.251,65.954h1.517v-5.971
	c0.759,1.42,2.158,2.256,3.986,2.256c2.897,0,4.881-2.119,4.881-5.153c0-3.072-2.021-5.212-4.92-5.212
	c-1.789,0-3.188,0.836-3.947,2.275v-2.217h-1.517V65.954z M157.221,58.252c0,2.47,1.439,3.986,3.831,3.986
	c1.848-0.02,3.209-0.777,3.89-2.372v2.313h1.517V51.932h-1.517v5.037c0,2.178-1.244,3.714-3.364,3.753c-1.77,0-2.84-1.07-2.84-2.878
	v-5.912h-1.517V58.252z M146.039,57.066c0-2.236,1.537-3.792,3.675-3.792c2.14,0,3.676,1.556,3.676,3.792
	c0,2.256-1.536,3.812-3.676,3.812C147.576,60.877,146.039,59.322,146.039,57.066z M144.522,57.046c0,3.073,2.159,5.192,5.192,5.192
	c3.034,0,5.192-2.119,5.192-5.192c0-3.053-2.158-5.153-5.192-5.153C146.681,51.893,144.522,53.994,144.522,57.046z M138.318,62.18
	h1.517v-5.444c0.175-2.023,1.517-3.365,3.675-3.326v-1.536c-1.73,0.02-2.995,0.836-3.675,2.334v-2.275h-1.517V62.18z
	 M122.605,55.374c0,3.831,3.15,6.885,7.099,6.885c1.828,0,3.714-0.72,5.056-1.789V55.53h-1.381v4.104
	c-1.05,0.719-2.353,1.147-3.578,1.147c-3.112,0-5.621-2.393-5.621-5.407c0-2.994,2.49-5.387,5.601-5.387
	c1.517,0,3.014,0.584,4.123,1.575l0.895-1.167c-1.303-1.146-3.131-1.866-5.018-1.866C125.775,48.529,122.605,51.542,122.605,55.374z
	 M106.445,57.241l3.033-6.903l3.073,6.903H106.445z M102.613,62.18h1.653l1.517-3.441h7.429l1.517,3.441h1.692l-6.087-13.612h-1.614
	L102.613,62.18z"/>
<path fill-rule="evenodd" clip-rule="evenodd" fill="#1E95D3" d="M290.718,9.685v11.424c0,0.341-0.02,0.719-0.058,1.145
	c0,0.085,0,0.142,0,0.161c0,0.189,0.038,0.312,0.095,0.388c0.066,0.076,0.171,0.113,0.294,0.113c0.189,0,0.539-0.322,1.041-0.975
	c0.511-0.644,1.003-1.193,1.467-1.628c1.136-1.098,2.262-1.921,3.379-2.47c1.107-0.559,2.177-0.833,3.209-0.833
	c1.05,0,1.883,0.265,2.488,0.805c0.616,0.54,0.919,1.259,0.919,2.158c0,1.524-1.192,2.442-3.578,2.773
	c-0.313,0.057-0.539,0.095-0.69,0.114c-0.492,0.076-1.003,0.227-1.533,0.454c-0.53,0.237-1.089,0.549-1.676,0.956
	c1.032,0.908,1.988,1.997,2.877,3.265c0.891,1.259,1.656,2.65,2.329,4.165c0.037,0.095,0.075,0.208,0.132,0.34
	c0.313,0.758,0.814,1.325,1.496,1.713c0.482,0.265,0.852,0.616,1.107,1.061c0.255,0.435,0.388,0.918,0.388,1.438
	c0,0.567-0.171,1.041-0.521,1.4s-0.786,0.54-1.297,0.54h-5.045c-0.955,0-1.646-0.152-2.054-0.445
	c-0.397-0.293-0.605-0.795-0.605-1.495c0-0.577,0.18-1.127,0.53-1.666c0.35-0.53,0.521-0.909,0.521-1.107
	c0-0.965-0.672-2.3-2.007-4.022c-1.344-1.713-2.28-2.575-2.82-2.575c-0.161,0-0.284,0.038-0.351,0.114
	c-0.057,0.066-0.095,0.208-0.095,0.407c0,0.019,0,0.066,0,0.142c0.038,0.388,0.058,0.757,0.058,1.107v3
	c0,0.918,0.444,1.666,1.334,2.243c0.89,0.578,1.335,1.25,1.335,2.026c0,0.775-0.18,1.344-0.54,1.713
	c-0.359,0.369-0.946,0.559-1.741,0.559h-6.058c-1.079,0-1.864-0.171-2.347-0.502c-0.483-0.331-0.729-0.871-0.729-1.609
	c0-0.975,0.568-1.722,1.704-2.243c0.369-0.161,0.662-0.303,0.861-0.416c0.284-0.142,0.482-0.407,0.605-0.786s0.18-0.984,0.18-1.817
	V14.398h-0.729c-0.757,0-1.334-0.17-1.741-0.501c-0.397-0.332-0.597-0.814-0.597-1.439c0-0.407,0.085-0.767,0.265-1.088
	c0.181-0.313,0.474-0.625,0.881-0.937l3.246-2.584c0.369-0.312,0.72-0.53,1.041-0.653c0.322-0.123,0.691-0.18,1.089-0.18
	c0.69,0,1.183,0.199,1.486,0.596C290.567,8.01,290.718,8.701,290.718,9.685 M272.319,26.371v3.36c0,1.126,0.085,1.969,0.246,2.527
	c0.17,0.549,0.426,0.918,0.775,1.107c0.181,0.095,0.454,0.218,0.823,0.388c1.23,0.54,1.847,1.259,1.847,2.168
	c0,0.775-0.247,1.344-0.748,1.713c-0.492,0.369-1.25,0.559-2.253,0.559h-6.36c-1.069,0-1.854-0.171-2.338-0.502
	c-0.492-0.331-0.738-0.871-0.738-1.609c0-1.013,0.597-1.779,1.799-2.3c0.331-0.151,0.587-0.265,0.748-0.359
	c0.293-0.189,0.501-0.463,0.624-0.823s0.18-0.956,0.18-1.789v-6.417h-0.747c-0.758,0-1.325-0.161-1.723-0.483
	c-0.397-0.331-0.597-0.804-0.597-1.438c0-0.426,0.085-0.795,0.266-1.107c0.17-0.312,0.464-0.634,0.87-0.946l3.237-2.546
	c0.388-0.313,0.747-0.54,1.069-0.672c0.322-0.123,0.691-0.189,1.098-0.189c0.795,0,1.344,0.322,1.647,0.966
	c0.312,0.653,0.539,0.975,0.681,0.975c0.02,0,0.389-0.322,1.099-0.975c0.71-0.644,1.58-0.966,2.593-0.966
	c1.278,0,2.3,0.445,3.058,1.325c0.757,0.89,1.136,2.073,1.136,3.549c0,1.325-0.313,2.357-0.938,3.076
	c-0.615,0.719-1.505,1.079-2.649,1.079c-0.615,0-1.107-0.17-1.478-0.502c-0.368-0.331-0.558-0.776-0.558-1.325
	c0-0.038,0.01-0.095,0.028-0.17c0.019-0.076,0.028-0.124,0.028-0.161c0-0.388-0.095-0.691-0.274-0.918
	c-0.189-0.218-0.436-0.332-0.748-0.332c-0.549,0-0.965,0.322-1.259,0.965C272.47,24.251,272.319,25.169,272.319,26.371z
	 M258.747,23.447v7.429c0,0.72,0.037,1.23,0.113,1.524c0.075,0.294,0.18,0.54,0.331,0.748c0.133,0.142,0.36,0.322,0.691,0.53
	c0.87,0.511,1.306,1.24,1.306,2.187c0,0.737-0.218,1.315-0.653,1.722c-0.435,0.407-1.05,0.606-1.846,0.606h-2.905
	c-0.975,0-1.666-0.247-2.063-0.748c-0.397-0.502-0.596-1.448-0.596-2.83v-5.792h-1.089c-1.884,0-3.389,0.275-4.505,0.814
	c-1.117,0.549-1.676,1.268-1.676,2.148c0,0.445,0.199,0.833,0.587,1.155c0.389,0.321,0.852,0.482,1.41,0.482
	c0.274,0,0.644-0.132,1.098-0.397c0.455-0.274,0.805-0.407,1.061-0.407c0.502,0,0.918,0.237,1.25,0.72
	c0.331,0.482,0.501,1.088,0.501,1.826c0,1.126-0.464,2.025-1.382,2.697c-0.928,0.673-2.167,1.014-3.72,1.014
	c-1.864,0-3.445-0.635-4.723-1.912c-1.287-1.278-1.931-2.858-1.931-4.742c0-2.328,1.041-4.136,3.123-5.433
	c2.073-1.297,4.969-1.94,8.688-1.94h1.307v-0.842c0-0.767-0.208-1.363-0.635-1.798c-0.426-0.435-1.031-0.653-1.808-0.653
	c-0.747,0-1.779,0.454-3.113,1.363c-1.335,0.909-2.414,1.363-3.247,1.363c-0.776,0-1.419-0.227-1.921-0.691
	c-0.502-0.463-0.748-1.05-0.748-1.751c0-1.353,0.852-2.489,2.556-3.426c1.704-0.937,3.871-1.401,6.521-1.401
	c2.603,0,4.59,0.549,5.962,1.647C258.065,19.765,258.747,21.355,258.747,23.447z M223.017,31.094v2.271h0.587
	c0.785,0,1.429,0.218,1.921,0.663c0.483,0.445,0.729,1.041,0.729,1.779c0,0.474-0.123,0.938-0.369,1.382
	c-0.256,0.445-0.738,1.004-1.448,1.694l-5.225,4.932c-0.426,0.388-0.785,0.652-1.089,0.804c-0.313,0.143-0.624,0.218-0.965,0.218
	c-0.776,0-1.438-0.274-1.997-0.813c-0.559-0.549-0.833-1.212-0.833-1.988c0-0.7,0.313-1.419,0.928-2.157
	c0.625-0.738,0.993-1.221,1.098-1.438c0.246-0.464,0.416-1.032,0.502-1.704c0.095-0.672,0.142-1.893,0.142-3.644v-9.777
	c0-0.644-0.047-1.173-0.142-1.581c-0.086-0.407-0.228-0.738-0.417-1.003c-0.113-0.161-0.303-0.36-0.577-0.578
	c-0.729-0.558-1.089-1.202-1.089-1.94c0-0.805,0.218-1.373,0.663-1.713s1.239-0.511,2.366-0.511h3.521
	c1.004,0,1.741,0.18,2.225,0.53c0.482,0.35,0.719,0.871,0.719,1.581c0,0.369-0.198,1.003-0.596,1.912
	c-0.397,0.909-0.597,1.751-0.597,2.527c0,1.325,0.417,2.385,1.25,3.17c0.832,0.786,1.931,1.183,3.293,1.183
	c1.41,0,2.556-0.492,3.436-1.486c0.89-0.994,1.335-2.271,1.335-3.843c0-2.688-0.928-4.789-2.783-6.303
	c-1.864-1.524-4.429-2.281-7.723-2.281c-3.01,0-5.329,0.549-6.947,1.647c-1.618,1.107-2.423,2.669-2.423,4.704
	c0,1.259,0.521,2.631,1.562,4.117c1.041,1.486,1.563,2.555,1.563,3.208c0,0.88-0.304,1.618-0.919,2.205
	c-0.605,0.577-1.382,0.871-2.328,0.871c-1.628,0-3.048-0.918-4.278-2.745c-1.229-1.836-1.846-4.042-1.846-6.625
	c0-4.051,1.42-7.288,4.27-9.71c2.849-2.423,6.691-3.634,11.518-3.634c5.007,0,9.03,1.287,12.077,3.852
	c3.038,2.574,4.563,5.925,4.563,10.051c0,3.531-0.938,6.36-2.82,8.471c-1.874,2.121-4.354,3.18-7.439,3.18
	c-0.966,0-1.894-0.123-2.783-0.36C224.768,31.965,223.888,31.596,223.017,31.094z M179.12,17.692h7.478
	c1.164,0,2.044,0.217,2.631,0.652c0.597,0.436,0.89,1.089,0.89,1.959c0,0.729-0.436,1.647-1.306,2.783l-7.146,9.086
	c-0.114,0.151-0.199,0.293-0.266,0.436s-0.095,0.284-0.095,0.426c0,0.151,0.057,0.293,0.161,0.416
	c0.113,0.132,0.236,0.199,0.359,0.199h1.032c0.795,0,1.816-0.634,3.057-1.902c1.25-1.269,2.253-1.902,3.01-1.902
	c0.7,0,1.269,0.189,1.694,0.558c0.426,0.369,0.634,0.871,0.634,1.496c0,0.17-0.019,0.341-0.057,0.53
	c-0.038,0.18-0.095,0.37-0.161,0.559l-1.723,4.288c-0.217,0.614-0.539,1.078-0.955,1.4c-0.417,0.321-0.89,0.482-1.43,0.482
	c-0.35,0-0.71-0.075-1.079-0.236c-0.369-0.151-0.785-0.397-1.249-0.729h-8.281c-1.202,0-2.102-0.218-2.688-0.663
	c-0.596-0.444-0.89-1.126-0.89-2.054c0-0.682,0.331-1.429,0.994-2.243c0.095-0.133,0.16-0.218,0.198-0.246l7.563-9.683
	c0-0.019,0.019-0.047,0.057-0.076c0.228-0.331,0.331-0.587,0.331-0.748c-0.019-0.151-0.065-0.246-0.151-0.303
	c-0.085-0.057-0.227-0.095-0.426-0.113h-0.946c-0.719,0-1.6,0.511-2.631,1.533c-1.032,1.023-1.922,1.534-2.66,1.534
	c-0.596,0-1.098-0.18-1.523-0.549s-0.634-0.814-0.634-1.325c0-0.132,0.019-0.293,0.066-0.492c0.047-0.189,0.113-0.417,0.208-0.672
	l1.325-3.256c0.34-0.833,0.681-1.401,1.041-1.713c0.359-0.303,0.852-0.454,1.457-0.454c0.369,0,0.72,0.076,1.051,0.236
	C178.391,17.058,178.742,17.323,179.12,17.692z M158.099,17.692h7.477c1.165,0,2.045,0.217,2.632,0.652
	c0.596,0.436,0.89,1.089,0.89,1.959c0,0.729-0.436,1.647-1.307,2.783l-7.146,9.086c-0.113,0.151-0.198,0.293-0.265,0.436
	s-0.095,0.284-0.095,0.426c0,0.151,0.057,0.293,0.161,0.416c0.113,0.132,0.236,0.199,0.359,0.199h1.031
	c0.795,0,1.817-0.634,3.058-1.902c1.249-1.269,2.252-1.902,3.01-1.902c0.7,0,1.268,0.189,1.693,0.558
	c0.427,0.369,0.635,0.871,0.635,1.496c0,0.17-0.019,0.341-0.057,0.53c-0.038,0.18-0.095,0.37-0.161,0.559l-1.723,4.288
	c-0.218,0.614-0.539,1.078-0.956,1.4c-0.416,0.321-0.89,0.482-1.429,0.482c-0.351,0-0.71-0.075-1.079-0.236
	c-0.369-0.151-0.786-0.397-1.25-0.729h-8.281c-1.202,0-2.101-0.218-2.688-0.663c-0.597-0.444-0.89-1.126-0.89-2.054
	c0-0.682,0.332-1.429,0.994-2.243c0.095-0.133,0.161-0.218,0.199-0.246l7.562-9.683c0-0.019,0.02-0.047,0.058-0.076
	c0.227-0.331,0.331-0.587,0.331-0.748c-0.019-0.151-0.066-0.246-0.151-0.303s-0.228-0.095-0.426-0.113h-0.946
	c-0.72,0-1.6,0.511-2.632,1.533c-1.031,1.023-1.921,1.534-2.659,1.534c-0.597,0-1.098-0.18-1.523-0.549
	c-0.426-0.369-0.635-0.814-0.635-1.325c0-0.132,0.019-0.293,0.066-0.492c0.047-0.189,0.114-0.417,0.208-0.672l1.325-3.256
	c0.341-0.833,0.682-1.401,1.041-1.713c0.359-0.303,0.852-0.454,1.458-0.454c0.369,0,0.719,0.076,1.05,0.236
	C157.371,17.058,157.72,17.323,158.099,17.692z M147.187,23.673v6.456h0.331c0.634,0,1.145,0.208,1.552,0.624
	c0.407,0.417,0.615,0.947,0.615,1.59c0,0.795-0.53,1.685-1.581,2.659l-0.142,0.114l-3.682,3.407
	c-0.293,0.313-0.587,0.539-0.871,0.662c-0.293,0.133-0.596,0.199-0.937,0.199c-0.606,0-1.155-0.256-1.647-0.767
	c-0.492-0.502-0.738-1.079-0.738-1.732c0-0.351,0.284-0.984,0.852-1.921c0.568-0.938,0.852-2.006,0.852-3.228v-4.799
	c0-1.42-0.199-2.385-0.587-2.906c-0.388-0.521-1.079-0.776-2.083-0.776c-1.202,0-2.082,0.549-2.659,1.637
	c-0.578,1.089-0.861,2.773-0.861,5.064c0,1.06,0.076,1.864,0.218,2.413c0.151,0.559,0.378,0.928,0.691,1.107
	c0.17,0.114,0.417,0.255,0.748,0.417c1.013,0.502,1.524,1.173,1.524,2.026c0,0.795-0.199,1.372-0.596,1.731
	c-0.398,0.359-1.051,0.54-1.979,0.54h-6.218c-1.079,0-1.865-0.171-2.348-0.502c-0.482-0.331-0.729-0.861-0.729-1.6
	c0-0.984,0.568-1.732,1.704-2.253c0.369-0.161,0.662-0.303,0.861-0.416c0.284-0.142,0.483-0.407,0.606-0.786
	c0.123-0.379,0.18-0.984,0.18-1.817v-6.426h-0.729c-0.757,0-1.334-0.161-1.742-0.483c-0.397-0.322-0.596-0.804-0.596-1.429
	c0-0.426,0.085-0.795,0.265-1.107c0.18-0.322,0.473-0.634,0.88-0.947l3.247-2.555c0.445-0.332,0.813-0.559,1.126-0.682
	c0.303-0.123,0.634-0.18,1.003-0.18c0.577,0,1.031,0.18,1.372,0.54c0.341,0.359,0.511,0.833,0.511,1.4v0.559
	c0,0.218,0.028,0.378,0.095,0.454c0.066,0.085,0.161,0.133,0.293,0.133c0.132,0,0.378-0.218,0.748-0.644
	c1.382-1.628,3.029-2.442,4.931-2.442s3.303,0.53,4.183,1.581C146.742,19.651,147.187,21.336,147.187,23.673z M119.843,29.618
	h-8.613c0.218,1.164,0.748,2.11,1.59,2.83c0.843,0.729,1.827,1.088,2.953,1.088c1.051,0,2.148-0.426,3.284-1.278
	c1.136-0.852,1.95-1.277,2.452-1.277c0.644,0,1.192,0.265,1.647,0.786c0.454,0.53,0.681,1.193,0.681,1.987
	c0,1.307-0.776,2.489-2.338,3.54c-1.562,1.051-3.473,1.581-5.726,1.581c-3.066,0-5.556-0.994-7.467-2.982
	c-1.912-1.987-2.868-4.542-2.868-7.685c0-3.397,0.918-6.114,2.764-8.149c1.836-2.035,4.268-3.048,7.306-3.048
	c2.603,0,4.78,0.824,6.521,2.471c1.732,1.637,2.603,3.653,2.603,6.038c0,1.533-0.331,2.594-1.003,3.199
	C122.957,29.314,121.698,29.618,119.843,29.618z M115.991,25.585c1.107,0,1.865-0.104,2.281-0.322
	c0.416-0.208,0.625-0.596,0.625-1.155c0-0.681-0.313-1.24-0.937-1.675c-0.634-0.435-1.448-0.653-2.47-0.653
	c-1.089,0-2.044,0.36-2.877,1.079c-0.833,0.729-1.306,1.638-1.438,2.726H115.991z M85.458,13.376v7.61h3.379
	c1.6,0,2.773-0.303,3.512-0.918c0.748-0.606,1.117-1.571,1.117-2.887c0-1.315-0.369-2.281-1.117-2.886
	c-0.738-0.615-1.912-0.918-3.512-0.918H85.458z M78.984,7.697h9.796c3.426,0,6.114,0.757,8.064,2.271
	c1.95,1.515,2.925,3.578,2.925,6.19c0,1.845-0.351,3.388-1.042,4.619c-0.69,1.23-1.798,2.281-3.332,3.17
	c2.575,0.814,4.496,2.12,5.764,3.909c1.268,1.789,1.903,4.098,1.903,6.928c0,4.175-1.571,7.534-4.704,10.09
	c-3.133,2.546-7.316,3.823-12.55,3.823c-5.14,0-9.313-1.353-12.522-4.051c-3.208-2.697-4.808-6.151-4.808-10.363
	c0-2.414,0.625-4.486,1.874-6.19c1.25-1.713,2.66-2.565,4.25-2.565c1.022,0,1.817,0.284,2.385,0.842
	c0.578,0.568,0.861,1.344,0.861,2.347c0,0.568-0.095,1.098-0.293,1.59c-0.189,0.492-0.53,1.041-1.013,1.646
	c-0.558,0.691-0.937,1.306-1.126,1.865c-0.199,0.549-0.294,1.202-0.294,1.94c0,2.195,0.928,3.966,2.773,5.31
	c1.846,1.335,4.307,2.006,7.373,2.006c3.293,0,5.972-0.785,8.045-2.365c2.073-1.581,3.104-3.597,3.104-6.029
	c0-2.442-0.852-4.382-2.556-5.812c-1.704-1.429-4.013-2.148-6.938-2.148c-0.388,0-0.681,0-0.88,0.01
	c-0.208,0.009-0.397,0.028-0.587,0.047v2.044h0.833c0.794,0,1.429,0.237,1.912,0.701c0.482,0.454,0.719,1.06,0.719,1.798
	c0,0.482-0.104,0.927-0.322,1.334c-0.208,0.397-0.691,0.984-1.448,1.742l-4.704,4.666c-0.275,0.274-0.616,0.492-1.013,0.653
	c-0.397,0.161-0.804,0.236-1.211,0.236c-0.757,0-1.429-0.284-2.016-0.861c-0.578-0.567-0.871-1.23-0.871-1.968
	c0-0.483,0.341-1.307,1.022-2.471c0.681-1.164,1.022-2.385,1.022-3.663v-1.135V14.9c0-0.795-0.066-1.363-0.199-1.704
	c-0.123-0.341-0.369-0.586-0.719-0.729c-0.142-0.057-0.407-0.133-0.776-0.227c-1.373-0.351-2.054-1.089-2.054-2.215
	c0-0.643,0.227-1.192,0.681-1.646c0.445-0.454,0.984-0.682,1.59-0.682H78.984z"/>
<path fill-rule="evenodd" clip-rule="evenodd" fill="#1E95D3" d="M27.843,24.548v1.732h1.266c0,0,0.533-0.267,0.533-0.955
	c0-0.688-0.511-0.777-0.821-0.777C28.509,24.548,27.843,24.548,27.843,24.548 M30.063,26.968c1.865-1.532,0.688-3.153-0.289-3.508
	c-0.39-0.13-2.683-0.175-3.722-0.177c-0.013,0.003-0.025,0.007-0.038,0.011c-0.014,0.004-0.026,0.005-0.04,0.007
	c-0.001,0.001-0.003,0.001-0.005,0.002c-0.008,0.004-0.017,0.009-0.025,0.014c-0.505,0.533-0.137,0.833,0.188,0.942
	c0.333,0.111,0.355,0.355,0.355,0.355v4.174c0,0.355-0.466,0.799-0.466,1.066c0.288,1.028,1.077,0.521,1.077,0.521
	s0.566-0.566,1.388-1.476c0.377-0.91-0.644-0.866-0.644-0.866V27.59c2.243-0.222,2.498,1.199,2.498,1.876
	c-0.367,1.521-1.743,1.743-2.942,1.743c-1.865-0.266-2.065-1.51-1.776-2.22c0.511-0.71,0.666-1.376,0.178-1.577
	c-1.065-0.399-1.687,0.733-1.798,1.465c-0.244,1.199,0.933,3.331,2.731,3.486s3.708,0.222,4.795-1.865
	C32.461,27.568,30.063,26.968,30.063,26.968z"/>
<polygon fill-rule="evenodd" clip-rule="evenodd" fill="#7CBEE9" points="27.84,9.273 27.875,9.273 27.917,9.273 42.9,9.273 
	31.705,21.448 27.875,21.364 27.857,21.364 27.84,21.364 24.009,21.448 12.815,9.273 27.798,9.273 "/>
<polygon fill-rule="evenodd" clip-rule="evenodd" fill="#217EC2" points="20.036,9.273 27.857,0 35.679,9.273 27.857,21.364 "/>
<polygon fill-rule="evenodd" clip-rule="evenodd" fill="#CF203D" points="15.328,12.007 18.863,10.881 23.251,20.623 "/>
<polygon fill-rule="evenodd" clip-rule="evenodd" fill="#FFFFFF" points="30.25,5.313 27.857,16.787 25.465,5.313 "/>
<polygon fill-rule="evenodd" clip-rule="evenodd" fill="#CF203D" points="40.375,12.007 36.84,10.881 32.452,20.623 "/>
<polygon fill-rule="evenodd" clip-rule="evenodd" fill="#7CBEE9" points="27.875,46.44 27.84,46.44 27.798,46.44 12.815,46.44 
	24.009,34.267 27.84,34.35 27.857,34.35 27.875,34.35 31.706,34.267 42.9,46.44 27.917,46.44 "/>
<polygon fill-rule="evenodd" clip-rule="evenodd" fill="#217EC2" points="35.679,46.44 27.857,55.714 20.036,46.44 27.857,34.35 "/>
<polygon fill-rule="evenodd" clip-rule="evenodd" fill="#CF203D" points="40.386,43.708 36.852,44.833 32.463,35.091 "/>
<polygon fill-rule="evenodd" clip-rule="evenodd" fill="#FFFFFF" points="25.465,50.4 27.857,38.927 30.25,50.4 "/>
<polygon fill-rule="evenodd" clip-rule="evenodd" fill="#CF203D" points="15.34,43.708 18.875,44.833 23.263,35.091 "/>
<polygon fill-rule="evenodd" clip-rule="evenodd" fill="#7CBEE9" points="9.274,27.875 9.274,27.84 9.274,27.798 9.274,12.814 
	21.448,24.009 21.364,27.84 21.364,27.857 21.364,27.875 21.448,31.705 9.274,42.9 9.274,27.916 "/>
<polygon fill-rule="evenodd" clip-rule="evenodd" fill="#217EC2" points="9.274,35.678 0,27.857 9.274,20.036 21.364,27.857 "/>
<polygon fill-rule="evenodd" clip-rule="evenodd" fill="#CF203D" points="12.007,40.386 10.882,36.852 20.624,32.463 "/>
<polygon fill-rule="evenodd" clip-rule="evenodd" fill="#FFFFFF" points="5.314,25.465 16.787,27.857 5.314,30.25 "/>
<polygon fill-rule="evenodd" clip-rule="evenodd" fill="#CF203D" points="12.007,15.34 10.882,18.875 20.624,23.263 "/>
<polygon fill-rule="evenodd" clip-rule="evenodd" fill="#7CBEE9" points="46.44,27.839 46.44,27.875 46.44,27.916 46.44,42.9 
	34.267,31.705 34.35,27.875 34.351,27.857 34.35,27.839 34.267,24.009 46.44,12.814 46.44,27.798 "/>
<polygon fill-rule="evenodd" clip-rule="evenodd" fill="#217EC2" points="46.44,20.036 55.714,27.857 46.44,35.678 34.35,27.857 "/>
<polygon fill-rule="evenodd" clip-rule="evenodd" fill="#CF203D" points="43.708,15.328 44.833,18.863 35.091,23.251 "/>
<polygon fill-rule="evenodd" clip-rule="evenodd" fill="#FFFFFF" points="50.401,30.25 38.928,27.857 50.401,25.465 "/>
<polygon fill-rule="evenodd" clip-rule="evenodd" fill="#CF203D" points="43.708,40.375 44.833,36.839 35.091,32.451 "/>
</svg>
